<?xml version="1.0" standalone="no"?>
<!DOCTYPE svg PUBLIC "-//W3C//DTD SVG 20010904//EN"
 "http://www.w3.org/TR/2001/REC-SVG-20010904/DTD/svg10.dtd">
<svg version="1.0" xmlns="http://www.w3.org/2000/svg"
 width="256.000000pt" height="256.000000pt" viewBox="0 0 256.000000 256.000000"
 preserveAspectRatio="xMidYMid meet">
<metadata>
Created by potrace 1.14, written by Peter Selinger 2001-2017
</metadata>
<g transform="translate(0.000000,256.000000) scale(0.100000,-0.100000)"
fill="#000000" stroke="none">
<path d="M975 2052 c-6 -27 -11 -31 -56 -37 -27 -4 -51 -11 -55 -16 -3 -5 -17
-9 -32 -9 -15 0 -50 -12 -78 -26 -40 -20 -56 -36 -70 -65 -17 -38 -17 -44 6
-172 12 -73 25 -138 28 -145 3 -9 16 -11 42 -7 42 7 43 6 56 -68 4 -25 16 -44
35 -58 26 -18 29 -26 29 -76 l0 -55 30 4 30 5 0 -69 0 -68 -89 0 c-73 0 -93
-3 -114 -20 -31 -25 -39 -25 -105 0 -53 20 -108 26 -128 12 -32 -21 -480 -922
-471 -946 4 -9 18 -21 33 -26 18 -7 24 -15 20 -26 -3 -9 -6 -19 -6 -22 0 -4
-18 -18 -40 -32 -38 -24 -40 -27 -40 -77 l0 -53 209 0 209 0 6 31 c8 40 -11
119 -32 135 -15 12 -14 13 10 14 49 0 87 62 158 255 l65 177 7 -83 c3 -46 6
-161 7 -256 1 -108 5 -174 11 -178 7 -4 8 -24 4 -51 l-6 -44 651 0 651 0 0 41
c0 22 -5 49 -11 60 -8 16 -7 25 5 38 12 13 16 41 17 112 1 77 3 88 10 61 7
-23 24 -42 56 -62 26 -17 53 -30 61 -30 7 0 2 -10 -13 -23 -22 -19 -27 -31
-28 -82 -1 -33 2 -72 6 -88 7 -27 8 -27 96 -27 86 0 89 1 95 24 6 24 6 24 46
9 22 -9 40 -20 40 -25 0 -4 52 -8 115 -8 73 0 115 4 115 10 0 44 -77 131 -142
161 -36 16 -43 57 -13 69 12 5 25 15 28 22 2 8 -39 118 -93 245 -54 127 -132
325 -174 440 -48 132 -84 214 -97 225 -26 22 -66 23 -141 2 -56 -16 -59 -16
-107 5 -34 14 -71 21 -115 21 l-66 0 0 48 c0 45 2 49 33 63 19 8 33 22 35 35
4 28 42 40 42 14 0 -27 33 -33 75 -13 33 16 36 21 31 48 -3 16 -10 86 -16 153
-13 142 -34 218 -88 317 l-38 70 -105 52 c-133 66 -172 73 -485 88 l-142 7 -7
-30z"/>
</g>
</svg>
